<?xml version="1.0" encoding="UTF-8"?>
<svg id="Capa_1" data-name="Capa 1" xmlns="http://www.w3.org/2000/svg" viewBox="0 0 1725.82 704.87">
  <g>
    <path d="M924.68,237.88c-1.99,1.29-7.17-.08-8.48-1.21-1.3-1.13.45-7.69,1.91-8.59l19.03-11.77,29.42-18.39c10.94-6.84,25.57-20.47,35.42-17.26,1.29.42-1.02,6.13-2.5,7.14l-33.84,23.19-20.95,13.95-20.02,12.93Z" fill="#fff"/>
    <path d="M227.33,345.95l49.17-120.06,29.58-74.36,10.58-29.17c5.47-15.09,3.68-19.83,9.91-23.53,4.52-2.69,8.92,11.42,2.21,28.82l-9.3,24.14-17.42,42.56-8.41,19.1-12.43,28.86-8.78,21.2-8.27,19.68c-8.6,20.47-16.79,39.19-24.42,62.14,30.03-17.07,55.34-35.03,81.36-55.98l24.17-19.47c35.97-28.96,68.72-61.46,101.17-96.33l15-16.12c19.94-21.43,81.4-104.28,47.38-135.3-29.85-27.22-99.51-9-134.68,1.31l-26.27,7.7c-5.71,1.67-12,3.53-17.37,5.67l-20.82,8.32-57.5,24.58-18.89,9.26-15.32,7.72-30.57,16.33-48.66,28.12c-20.9,12.08-160.9,97.31-121.56,137.28,5.34,5.42,12.16,10.72,18.47,13.75l16.25,7.83c-16.69.08-55.36-11.7-51.65-39.61,3.27-24.56,18.5-40.45,33.12-54.44,7.53-7.21,14.89-14.69,23.08-20.63,22.49-16.31,44.34-32.47,67.99-45.93l24.64-14.01,81.17-44.72c7.58-4.17,16.17-6.79,24.02-10.16l41.2-17.68c11.37-4.88,22.79-9.79,34.42-13.5l42.82-13.65c5.94-1.89,12.03-3.3,18.29-4.69,31.82-7.06,143.84-34.99,138.19,39.61-1.33,17.59-7.02,34.61-15.33,48.85l-15.13,25.93c-8.95,15.34-20.33,28.44-31.55,41.31l-9.56,10.97c-29.01,33.29-60.64,60.22-93.26,88.41-39.73,34.32-80.15,63.57-123.46,90.33-5.31,3.28-10.16,9.16-12.53,15.11l-14.94,37.55c26.11.76,48.93.45,73.61-6.24-15.98-10.84-50.57-8.96-55.14-24.79-.71-2.46,6.25-5.36,8.26-4.53l55.6,22.94c10.97,4.52,22.36,4.55,33.86,2.67,40.04-6.54,81.67-15.73,119.44-31.66l25.12-10.59c-.24-.32,1.27,1.75,1.9,2.6l-40.76,19.05c-16.65,7.78-34.06,13.48-51.63,17.62l-51.6,12.16c31.96,17.2,49.88,18.95,82.65,35.21l36.32,18.02c-2.98,1.16-5.64,1.07-7.85.1l-48.8-21.29c-5.37-2.34-11.17-4.25-16.89-5.92l-19.45-5.68c-12.93-3.78-37.04-17.41-46.02-17.19-11.28.28-21.17,1.04-32.04,2.08l-17.83,1.71-13.58,1.28-18.14,1.68-16.5,1.51c-2.63.24-7.47,3.78-8.67,6.72l-21.58,52.9-4.99,15.33c-3.8,11.67-8.38,20.29-16.45,30.11-2.84-5.93-2.95-12.45-1-17.42l9.17-23.41,6.52-16.56,19.37-46.78-28.94-2.24c-8.17-.63-16.37-5.43-22.71-12.56-2.03-2.28,1.38-8.86,3.93-10.09,24.65-11.97,46.83-23.65,70.97-37.45,2.62-1.5,5.85-7.74,7.76-12.39ZM202.48,407.31l14.6-36.47-24.49,12.5c-11.18,5.7-21.32,11.95-33.37,20.15,14.63,8.55,28.62,7.33,43.26,3.83Z" fill="#fff"/>
    <path d="M1709.82,338.74c4.25,1.39,5.15,1.88.37,3.3l-16.02-3.52c-17.21-3.78-33.74-5.56-51.09-6.61l-24.57-1.5-23.87-1.46c-19.55-1.2-38.76-1.55-57.91-.76l-21.35.89-29.85,1.65-21.24,1.91-153.45,20.53c-16.31,2.18-31.02,5.63-46.69,9.2l-43.53,9.92c-22.19,5.06-43.87,8.95-66.43,12.34-17.91,2.69-42.86,3.78-59.29-4.28-17.66-8.66-10.16-29.18-12.07-44-8.48-10.58-57.93,33.27-66.54,41.25-2.22,2.06-8.16,2.53-10,.64-2.1-2.16-2.01-9.82-.4-12.95l18.94-36.87c-9.53,3.86-15.74,7.87-23.99,12.56l-32.87,18.71c-14.84,8.45-36.07,17.82-52.22,15.65-14.08-1.89-9.33-21.73-12.22-26.5-18.57,13.24-35.09,30.9-57.33,27.42-5.27-.82-8.89-9.02-8.26-14.17l1.6-12.93-46.16,22.88c-4.31,2.14-24.22,7.69-32.36-1.55-2.87-3.26-3.52-13.61-2.88-18.15l3.61-25.45c-18.74,10.77-30.94,21.93-45.84,35.73-6.78,6.28-20.98,20.79-27.71,13.43-1.71-1.87-3.12-8.45-2.21-11.56l11.97-41.16c-17.11,7.91-27.96,18.27-40.7,30.68l-29.82,29.06c-2.04,1.98-9.58,1.94-10.6-.94-1.88-5.33.85-14.52,3.81-20.4l26.29-52.17c7.38-14.64-18.58-4.47-22.18-3.31-21.63,6.96-43.66,11.38-65.46,14.61-12.4,31.38-43.18,73.27-70.72,79.74-7.99,1.88-15.95-6.86-14.8-16.65,3.57-30.39,31.68-62.97,52.67-78.5,13.96-10.33,8.61-20.69,22.69-19,13.3,1.59,8.18,23.99,14.94,24.3,21.51.97,54.1-9.24,75.73-17.39,4.89-1.84,10.88-2.77,16.16-1.11,16.88,5.33-23.18,65.55-20.57,65.95,1.09.17,4.5.53,5.37-.3l14.61-13.76c8.55-8.05,40.8-36.48,49.42-31.1,12.11,7.56-7.68,37.57-4.31,48.73l22.36-17.41,24.61-19.31c5.1-4,17.11-11,22.38-6.07,1.6,1.5,3.63,7.83,3.08,10.27l-5.07,22.55c-.83,3.67,1.27,14.6,4.41,14.4,13.79-.88,25.13-4.35,37.17-10.26,13.56-6.66,28.5-11.53,40.15-22.04l20.64-18.62c10.83-9.77,51.67-30.89,54.04-6.22l4.41,10.37-12.41,28.92c-1.24,2.89-1.91,10.4-.49,12.96,7.05,12.68,45.69-7.65,56-13.14l19.88-10.59,37.18-22.07c1.51-.9,6.04-.39,7.33.74,6.88,6.03-3.36,23.87-7.28,32.01l2.19,2.68,26.86-17.29c6.82-4.39,31.74-18.1,34.86-2.96,1.26,6.09.75,14.78-.36,21.73-3.6,22.55,29.66,25.14,41.57,24.12,22.27-1.92,43.43-5.35,65.46-9.17l38.13-6.6,46.09-9.36,34.54-5.69,50.04-8.3,83.4-10.7,18.03-1.53,23.81-1.99,23.86-1.89c23.54-1.86,63.12-1.16,87.04,1.08l16.05,1.5,22.81,1.55c11.78.8,23.44,2.34,35.12,5.3l16.78,4.26,14.68,3.72ZM550.05,300.91c0-.68-.44-1.23-.99-1.23s-.99.55-.99,1.23.44,1.23.99,1.23.99-.55.99-1.23ZM918.83,312.1c-19.47-6.95-61.97,27.31-69.98,48.85,14.45,12.21,63.48-31,69.98-48.85ZM548.26,321.1c-.53-6.1-10.91-6.83-14.97-3.45-19.6,16.34-36.55,34.38-47.63,60.63-1.18,2.8-1.4,8.06.08,9.8,7.93,9.36,59.53-40.52,62.52-66.98Z" fill="#fff"/>
    <g>
      <path d="M1347.38,662.2l39.24-78.14,19.8-37.38,30.27-60.18c-13.79,2.96-44.94,21.19-52.89-.69-6.19-17.05,13.16-38.63,25.29-46.53l16.78-10.92c12.84-8.36,43.85-13.55,42.6,3.96-.7,9.79-2.39,18.85-5.92,26.35-8.01,17.05-15.88,32.51-24.63,48.81l-49.4,91.98c-11.99,22.32-22.96,43.42-32.89,67.48-1.59,3.84-6.48,9.61-9.28,8.08-2.08-1.13-.56-9.68,1.03-12.84ZM1456.97,439.66c1.26-4.56-5.1-10.45-8.93-9.16-20.66,6.95-38.44,19.48-52.13,39.78-1.79,2.65-3.09,9.94-1.89,12.67,6.68,15.3,51.89-3.48,62.94-43.3Z" fill="#fff"/>
      <path d="M1638.46,599.01l-11.5,27.62c-2.96,7.1-7.41,14.76-9.89,21.81l-9.69,27.48-10.87,28.96c-3.28-4.48-2.3-7.76-.93-12.3l7.67-25.4c1.57-5.2,3.61-12.62,5.52-17.36l13.21-32.8,24.5-61.33c3.06-7.65,5.79-15.5,8.69-24.23-18.84-11.45-15.33,4.37-47.85-4.34-2.64-.71-6.95-4.56-8.31-7.21-6.93-13.52,16.1-42.37,24.52-53.71l9.45-12.73,9.77-13.38,14.32-19.64c.96-1.32,5.83-1.25,7.2-.75,1.72.63,1.13,7.17-.21,8.92l-19.89,26.07-24.23,34.85c-3.51,5.05-8.84,15.39-9.62,21.65,1.32,11.91,36.39,7.8,44.49,7.22,4.83-.34,9.23-6.28,11.59-11.69l17.57-40.41c.67-1.54,6.4-2.94,6.86-1.39s1.51,6.87.83,8.4l-13.9,31.2c-.84,1.89-1.73,7.37-2.12,10.37l19.43-1.39,1.54,2.94-24.39,8.72c-4.68,1.67-8.82,13.74-11.26,19.62l-22.48,54.22Z" fill="#fff"/>
      <path d="M1498.3,561.21c-8.35,1.65-22.44,4.34-24.78-4.45s18.16-25.37,24.53-30.81l23.85-20.38c8.01-6.84,43.99-42.98,33.88-56.48-23.58-11.85-40.2,5.98-47.76,4.54-1.35-.26-2.64-5.29-2.26-6.93,2.8-11.9,72.25-20.82,61.94,13.42-9.69,32.17-48.83,56.25-70.2,85.35l57.18-4.21c7.83-.58,15.29-.98,22.71-.1-9.22,3.87-18.84,8.13-28.56,10.06l-50.53,9.99Z" fill="#fff"/>
      <path d="M1275.24,593.62c-5.5-5.18,5.41-34.96,6.23-36.87l17.34-40.34,24.19-54.14c31.14-69.69,37.6-40.53,30.35-28.51l-15.62,25.88c-5.08,8.43-9.47,18.04-14.08,27.02l-15.42,29.99c-6.91,13.44-13.1,26.96-18.77,41.21l-14.23,35.77Z" fill="#fff"/>
    </g>
  </g>
  <path d="M1725.82,346.5l-10.2-3.5c3.41-2.62,8.41-1.77,10.2,3.5Z" fill="#fff"/>
</svg>